<?xml version="1.0" standalone="no"?>
<!DOCTYPE svg PUBLIC "-//W3C//DTD SVG 20010904//EN"
 "http://www.w3.org/TR/2001/REC-SVG-20010904/DTD/svg10.dtd">
<svg version="1.0" xmlns="http://www.w3.org/2000/svg"
 width="400.000000pt" height="400.000000pt" viewBox="0 0 400.000000 400.000000"
 preserveAspectRatio="xMidYMid meet">
<metadata>
Created by potrace 1.11, written by Peter Selinger 2001-2013
</metadata>
<g transform="translate(0.000000,400.000000) scale(0.100000,-0.100000)"
fill="#000000" stroke="none">
<path d="M2160 3520 l0 -160 40 0 40 0 0 -200 0 -200 120 0 120 0 0 -120 0
-120 -80 0 -80 0 0 -40 0 -40 -40 0 -40 0 0 80 0 80 -40 0 -40 0 0 -360 0
-360 40 0 40 0 0 80 0 80 80 0 80 0 0 40 0 40 120 0 120 0 0 40 0 40 40 0 40
0 0 80 0 80 40 0 40 0 0 -120 0 -120 40 0 40 0 0 -120 0 -120 40 0 40 0 0 -40
0 -40 40 0 40 0 0 -160 0 -160 40 0 40 0 0 -40 0 -40 80 0 80 0 0 40 0 40 40
0 40 0 0 120 0 120 40 0 40 0 0 40 0 40 -40 0 -40 0 0 80 0 80 -40 0 -40 0 0
80 0 80 -40 0 -40 0 0 80 0 80 -40 0 -40 0 0 120 0 120 -40 0 -40 0 0 120 0
120 120 0 120 0 0 40 0 40 -80 0 -80 0 0 40 0 40 -40 0 -40 0 0 40 0 40 40 0
40 0 0 40 0 40 -40 0 -40 0 0 40 0 40 -40 0 -40 0 0 40 0 40 -160 0 -160 0 0
-40 0 -40 40 0 40 0 0 -80 0 -80 -40 0 -40 0 0 40 0 40 -120 0 -120 0 0 -40 0
-40 120 0 120 0 0 -40 0 -40 -40 0 -40 0 0 -40 0 -40 -80 0 -80 0 0 40 0 40
-40 0 -40 0 0 120 0 120 -40 0 -40 0 0 160 0 160 -40 0 -40 0 0 -160z"/>
<path d="M2000 3440 l0 -80 40 0 40 0 0 80 0 80 -40 0 -40 0 0 -80z"/>
<path d="M1120 3400 l0 -40 -40 0 -40 0 0 -40 0 -40 -40 0 -40 0 0 -120 0
-120 -120 0 -120 0 0 -40 0 -40 120 0 120 0 0 -160 0 -160 -40 0 -40 0 0 -120
0 -120 -40 0 -40 0 0 -80 0 -80 -40 0 -40 0 0 -280 0 -280 80 0 80 0 0 40 0
40 40 0 40 0 0 120 0 120 40 0 40 0 0 40 0 40 40 0 40 0 0 200 0 200 40 0 40
0 0 120 0 120 40 0 40 0 0 -80 0 -80 80 0 80 0 0 -40 0 -40 40 0 40 0 0 -40 0
-40 80 0 80 0 0 -40 0 -40 40 0 40 0 0 200 0 200 -40 0 -40 0 0 40 0 40 -40 0
-40 0 0 80 0 80 80 0 80 0 0 40 0 40 -160 0 -160 0 0 40 0 40 120 0 120 0 0
40 0 40 -80 0 -80 0 0 120 0 120 -200 0 -200 0 0 -40z"/>
<path d="M720 3240 l0 -40 80 0 80 0 0 40 0 40 -80 0 -80 0 0 -40z"/>
<path d="M1840 3080 l0 -120 40 0 40 0 0 120 0 120 -40 0 -40 0 0 -120z"/>
<path d="M3280 3160 l0 -40 40 0 40 0 0 40 0 40 -40 0 -40 0 0 -40z"/>
<path d="M2000 2400 l0 -160 40 0 40 0 0 160 0 160 -40 0 -40 0 0 -160z"/>
<path d="M2000 1640 l0 -120 40 0 40 0 0 120 0 120 -40 0 -40 0 0 -120z"/>
<path d="M220 1235 l0 -235 35 0 35 0 0 100 0 100 110 0 110 0 0 65 0 65 35 0
c33 0 35 2 35 35 0 33 -2 35 -35 35 -33 0 -35 2 -35 35 l0 35 -145 0 -145 0 0
-235z m210 100 l0 -65 -70 0 -70 0 0 65 0 65 70 0 70 0 0 -65z"/>
<path d="M1530 1235 l0 -235 110 0 110 0 0 35 c0 33 2 35 35 35 32 0 35 2 35
30 0 28 3 30 35 30 l35 0 0 100 0 100 -35 0 c-33 0 -35 2 -35 35 0 33 -2 35
-35 35 -33 0 -35 2 -35 35 l0 35 -110 0 -110 0 0 -235z m220 130 c0 -33 2 -35
35 -35 l35 0 0 -100 0 -100 -35 0 c-32 0 -35 -2 -35 -30 l0 -30 -75 0 -75 0 0
165 0 165 75 0 75 0 0 -35z"/>
<path d="M650 1200 l0 -200 40 0 40 0 0 135 0 135 35 0 c32 0 35 2 35 30 l0
30 70 0 70 0 0 -30 c0 -28 2 -30 40 -30 38 0 40 2 40 30 0 28 -2 30 -40 30
-39 0 -40 1 -40 35 l0 35 -70 0 -70 0 0 -35 c0 -33 -2 -35 -35 -35 -33 0 -35
2 -35 35 0 34 -1 35 -40 35 l-40 0 0 -200z"/>
<path d="M1160 1365 c0 -33 -2 -35 -35 -35 l-35 0 0 -130 0 -130 35 0 c33 0
35 -2 35 -35 l0 -35 110 0 110 0 0 65 0 65 35 0 35 0 0 70 0 70 -35 0 -35 0 0
65 0 65 -110 0 -110 0 0 -35z m150 -65 c0 -28 3 -30 35 -30 l35 0 0 -70 0 -70
-35 0 c-32 0 -35 -2 -35 -30 l0 -30 -75 0 -75 0 0 130 0 130 75 0 75 0 0 -30z"/>
<path d="M2040 1365 c0 -34 -1 -35 -40 -35 l-40 0 0 -130 0 -130 40 0 c39 0
40 -1 40 -35 l0 -35 110 0 110 0 0 35 0 35 -50 0 -50 0 0 65 0 65 50 0 50 0 0
100 0 100 -110 0 -110 0 0 -35z m140 -66 c0 -24 -3 -30 -16 -25 -9 3 -40 6
-70 6 -51 0 -54 1 -54 25 0 24 2 25 70 25 l70 0 0 -31z m-100 -134 c0 -24 5
-35 15 -35 10 0 15 -10 15 -30 0 -28 -3 -30 -35 -30 l-35 0 0 65 c0 58 2 65
20 65 16 0 20 -7 20 -35z"/>
<path d="M2470 1365 c0 -33 -2 -35 -35 -35 l-35 0 0 -130 0 -130 35 0 c33 0
35 -2 35 -35 l0 -35 110 0 110 0 0 65 0 65 40 0 40 0 0 70 0 70 -40 0 -40 0 0
65 0 65 -110 0 -110 0 0 -35z m150 -65 c0 -28 3 -30 35 -30 l35 0 0 -70 0 -70
-35 0 c-32 0 -35 -2 -35 -30 l0 -30 -75 0 -75 0 0 130 0 130 75 0 75 0 0 -30z"/>
<path d="M2160 775 c0 -87 -3 -105 -15 -105 -10 0 -15 -10 -15 -30 0 -20 5
-30 15 -30 10 0 15 -11 15 -35 0 -24 -5 -35 -15 -35 -10 0 -15 11 -15 35 0 33
-2 35 -35 35 l-35 0 0 -130 0 -130 35 0 c32 0 35 -2 35 -30 0 -20 5 -30 15
-30 12 0 15 -14 15 -65 l0 -65 40 0 40 0 0 65 0 65 50 0 c49 0 50 1 50 30 0
29 -1 30 -50 30 l-50 0 0 65 0 65 50 0 50 0 0 95 0 95 -50 0 -50 0 0 105 0
105 -40 0 -40 0 0 -105z m110 -200 c0 -24 -5 -35 -15 -35 -10 0 -15 11 -15 35
0 24 5 35 15 35 10 0 15 -11 15 -35z m-110 -125 c0 -23 4 -30 20 -30 16 0 20
-7 20 -35 0 -33 -2 -35 -35 -35 l-35 0 0 65 c0 51 3 65 15 65 10 0 15 -10 15
-30z"/>
<path d="M1780 765 c0 -32 2 -35 30 -35 27 0 30 -3 30 -30 l0 -30 -105 0 -105
0 0 -30 0 -30 110 0 110 0 0 -160 0 -160 35 0 35 0 0 255 0 255 -70 0 -70 0 0
-35z"/>
<path d="M2970 735 l0 -65 -70 0 -70 0 0 -30 0 -30 70 0 70 0 0 -160 0 -160
105 0 105 0 0 30 0 30 -70 0 -70 0 0 130 0 130 70 0 70 0 0 30 0 30 -70 0 -70
0 0 65 0 65 -35 0 -35 0 0 -65z"/>
<path d="M3761 736 c-87 -48 -50 -186 49 -186 51 0 100 49 100 99 0 75 -83
124 -149 87z m104 -31 c50 -49 15 -135 -55 -135 -41 0 -80 39 -80 80 0 41 39
80 80 80 19 0 40 -9 55 -25z"/>
<path d="M3776 694 c-9 -8 -16 -28 -16 -44 0 -52 50 -78 85 -44 21 21 13 29
-13 13 -31 -19 -54 -5 -50 33 3 31 5 33 42 31 33 -2 36 -1 26 12 -16 20 -54
19 -74 -1z"/>
<path d="M370 510 l0 -220 35 0 35 0 0 95 0 95 105 0 105 0 0 65 0 65 35 0
c32 0 35 2 35 30 0 28 -3 30 -35 30 -32 0 -35 2 -35 30 l0 30 -140 0 -140 0 0
-220z m210 95 l0 -65 -70 0 -70 0 0 65 0 65 70 0 70 0 0 -65z"/>
<path d="M790 480 l0 -190 35 0 35 0 0 125 0 125 35 0 c33 0 35 2 35 35 l0 35
70 0 70 0 0 -35 c0 -33 2 -35 35 -35 33 0 35 2 35 35 0 33 -2 35 -35 35 -32 0
-35 2 -35 30 l0 30 -70 0 -70 0 0 -30 c0 -28 -3 -30 -35 -30 -32 0 -35 2 -35
30 0 28 -3 30 -35 30 l-35 0 0 -190z"/>
<path d="M1280 640 c0 -28 -3 -30 -35 -30 l-35 0 0 -130 0 -130 35 0 c32 0 35
-2 35 -30 l0 -30 105 0 105 0 0 65 0 65 35 0 35 0 0 60 0 60 -35 0 -35 0 0 65
0 65 -105 0 -105 0 0 -30z m140 -65 c0 -33 2 -35 35 -35 l35 0 0 -60 0 -60
-35 0 c-33 0 -35 -2 -35 -35 l0 -35 -70 0 -70 0 0 130 0 130 70 0 70 0 0 -35z"/>
<path d="M2550 640 c0 -28 -3 -30 -35 -30 l-35 0 0 -130 0 -130 35 0 c32 0 35
-2 35 -30 l0 -30 105 0 105 0 0 30 0 30 -105 0 -105 0 0 130 0 130 105 0 105
0 0 30 0 30 -105 0 -105 0 0 -30z"/>
<path d="M3390 640 c0 -28 -3 -30 -35 -30 l-35 0 0 -65 0 -65 70 0 70 0 0 -30
c0 -28 3 -30 35 -30 33 0 35 -2 35 -35 l0 -35 -105 0 -105 0 0 -30 0 -30 140
0 140 0 0 95 0 95 -70 0 -70 0 0 30 c0 28 -3 30 -35 30 -33 0 -35 2 -35 35 l0
35 105 0 105 0 0 30 0 30 -105 0 -105 0 0 -30z"/>
<path d="M1630 190 l0 -30 110 0 110 0 0 30 0 30 -110 0 -110 0 0 -30z"/>
</g>
</svg>
