<svg xmlns="http://www.w3.org/2000/svg">
	<rect 
		width="50px" 
		height="50px"
		x="0" y="0"
		fill="Grey">
	</rect>
	
	<circle
		r="15px"
		cx="25px"
		cy="25px"
		fill="DarkGrey"
		>
	</circle>
	
	<circle
		r="10px"
		cx="25px"
		cy="25px"
		fill="DimGrey"
		>
	</circle>
	
	<circle
		r="6px"
		cx="25px"
		cy="25px"
		fill="DarkGrey"
		>
	</circle>
	
	<polygon 
		points="39.71,22.07 44.62,21.10 44.62,28.90 39.71,27.93" 
		style="fill:DarkGrey" />
	<polygon 
		points="37.47,33.33 41.63,36.11 36.11,41.63 33.33,37.47" 
		style="fill:DarkGrey" />
	<polygon 
		points="27.93,39.71 28.90,44.62 21.10,44.62 22.07,39.71" 
		style="fill:DarkGrey" />
	<polygon 
		points="16.67,37.47 13.89,41.63 8.37,36.11 12.53,33.33" 
		style="fill:DarkGrey" />
	<polygon 
		points="10.29,27.93 5.38,28.90 5.38,21.10 10.29,22.07" 
		style="fill:DarkGrey" />
	<polygon 
		points="12.53,16.67 8.37,13.89 13.89,8.37 16.67,12.53" 
		style="fill:DarkGrey" />
	<polygon 
		points="22.07,10.29 21.10,5.38 28.90,5.38 27.93,10.29" 
		style="fill:DarkGrey" />
	<polygon 
		points="33.33,12.53 36.11,8.37 41.63,13.89 37.47,16.67" 
		style="fill:DarkGrey" />
</svg>

